<?xml version="1.0" encoding="utf-8"?>
<!-- Generator: Adobe Illustrator 22.0.0, SVG Export Plug-In . SVG Version: 6.00 Build 0)  -->
<svg version="1.1" id="Calque_1" xmlns="http://www.w3.org/2000/svg" xmlns:xlink="http://www.w3.org/1999/xlink" x="0px" y="0px"
	 viewBox="0 0 825.1 824.6" style="enable-background:new 0 0 825.1 824.6;" xml:space="preserve">
<style type="text/css">
	.st0{fill:#010101;}
	.st1{fill:#050505;}
	.st2{fill:#0C0C0C;}
	.st3{fill:#090909;}
	.st4{fill:#080808;}
	.st5{fill:#0B0B0B;}
	.st6{fill:#F0F0F0;}
	.st7{fill:#F1F1F1;}
	.st8{fill:#121212;}
	.st9{fill:#FEFEFE;}
	.st10{fill:#FDFDFD;}
</style>
<g>
	<path d="M394.8,354c9.8,2.6,19.6,5.2,29.9,7.9c0.2-3.8-1.2-7-2-10.2c-5.4-22.7-13.3-44.8-17.5-67.9c-2.6-14.6-2.1-29.4-0.8-44.1
		c0.6-6.2,0.4-12.3,1.2-18.5c2.6-20.3,3.6-40.8,9.3-60.6c2.9-10,7.8-18.9,19-21.2c16.7-3.5,32.3,2.3,32.5,23.8
		c0.1,11.9-2.9,23.3-4.6,35c-3,20.8-3.3,41.7-1.7,62.7c3,40,16.5,77.4,26.1,115.8c1.1,4.6,3.9,6.5,8.7,6.6c20.5,0.1,41,0.3,61.5,0.8
		c14.9,0.4,29.4,4.9,43.7,9.4c30.1,9.4,57.7,23.4,81.9,43.8c18.3,15.4,32.3,34.4,44.6,54.8c9.1,15.1,16.7,30.9,19.4,48.5
		c3.2,20.3,5.3,40.7,3,61.4c-0.9,8.7-0.8,17.5-1.3,26.2c-0.3,6.1-0.9,12.2-2.9,18.1c-3.1,9.5-12,12.9-20.4,7.5
		c-6.3-4-10.9-9.7-13.9-16.5c-8.5-19.8-16.9-39.7-26.9-58.8c-8.5-16.2-16.7-32.8-28.1-47.2c-13.5-17.1-30.8-29.9-49.2-41.4
		c-8.3-5.2-17.4-8.8-25.9-13.7c-2.1-2.3-5.4-2.8-7.5-5.2c-0.8-0.9-1.6,0.2-2.3,0.7c-19.3-7.3-37.8-16.8-56.9-25
		c-0.8,2.4,0.5,3.9,1.1,5.5c14.6,37,29.3,73.9,43.8,110.9c13.1,33.5,25.9,67.1,39,100.7c0.4,1.1,0.5,2.1,0.5,3.1
		c1.3,2.9-1,7.3,3.7,8.8c9.2,24.1,18.9,48,25.5,72.9c2.4,9.1,2.3,18.2,0.2,27.5c-4.6,20.4-33,40.1-58.4,32.7
		c-10.4-3.1-20.2-7-29-13.6c-8.8-6.7-13.3-15.1-10-26c6.2-21,2.5-41.1-3.7-61.3c-11.3-37-22.3-74.1-33.5-111.2
		c-14.9-49.3-29.8-98.6-44.6-147.9c-1.3-4.4-3.3-6.4-7.8-7.5c-20.5-5.2-40.9-10.4-61.4-15.3c-48.8-11.7-97.7-23-146.7-33.8
		c-27.8-6.1-55.7-11.8-83.7-17.2c-8-1.5-16.1-3-24.2-3.2c-8.6-0.3-16.5,3-23.9,7.7c-10.1,6.4-19.6,5.6-26.3-1.7
		c-6.4-6.9-8.2-15.3-6.5-24.3c2.7-14.4,10.3-26.4,20.2-37c8.7-9.3,16.8-19.3,26.5-27.7c13.3-11.4,28.1-14.4,44.7-10.3
		c13.9,3.4,26.2,10.6,38.9,16.6c19.6,9.3,40.8,13.2,61.4,19.2c30.5,8.8,60.8,17.9,91.3,26.9c13.1,3.9,26.2,7.8,39.4,11.6
		C391.9,353.3,393.2,354.4,394.8,354z"/>
	<path d="M68.8,623.7c1-1.1,1.8-2,2.7-2.9c44.6-44.7,89.3-89.4,133.9-134c18.8-18.8,37.8-37.6,56.5-56.5c2.8-2.8,4.1-2.6,6.7,0.1
		C332,493.8,395.4,557.2,459,620.5c2.6,2.6,2.5,3.8-0.1,6.3C395.4,690.2,332,753.7,268.7,817.1c-2.5,2.5-4,2.9-6.8,0.1
		c-63.4-63.6-127-127.1-190.5-190.7C70.5,625.7,69.7,624.7,68.8,623.7z"/>
	<path d="M607.7,325.8c0.9-27.4,7.2-53.9,14.1-80.3c3.9-14.7,10-28,19-40.4c13.7-18.8,27.8-37.2,42.4-55.3
		c17.5-21.8,39.5-23.6,63.9-16.9c20.2,5.6,31.2,18.9,31.8,37.7c0.3,8.9-1.9,17.4-5.4,25.6c-7,16.1-17.1,30.2-28.2,43.6
		c-29.5,35.6-63.1,66.7-100.5,93.7c-8.5,6.1-18.5,9.5-27.5,14.8c-4.2,2.5-6.6,1.1-7.9-4C607.7,338.3,607.7,332,607.7,325.8z"/>
	<path class="st0" d="M90.6,48.6c0-13.4,0-26.7,0-40.1c0-1.8-0.8-4.4,2.5-4.3c13.9,0.3,27.8-1,41.7,0.9c12.3,1.7,20.7,9.1,25.1,20.4
		c6.2,15.7,5.9,31.6-0.6,47.1c-6.5,15.4-19.6,20.3-35.1,20.6c-9.7,0.2-19.4-0.1-29.1,0.1c-3.6,0.1-4.7-0.9-4.6-4.6
		C90.7,75.3,90.6,61.9,90.6,48.6z"/>
	<path class="st0" d="M233.2,93.2c-11.8,0.5-11.8,0.5-13.8-6.5c-2.2,0-3.5,1.8-5.1,2.8c-8.6,5.4-17.8,6.5-27.4,3.9
		c-7.2-1.9-11.5-6.9-12.6-14.3c-1.1-7.3,1.4-13.3,7.4-17.7c6.9-5,15.2-4.7,23-6.2c2.3-0.4,4.7-0.6,7-1.2c2.5-0.6,6.3,0.2,6.9-3.2
		c0.7-4-0.2-8.1-3.6-11c-8.1-6.6-22.6-3.5-27,5.9c-2.6,5.5-6.7,2.3-9.8,1.7c-4.1-0.8-1.1-3.9-0.5-5.6c1.6-4.8,4.7-8.6,9.5-10.8
		c10.3-4.6,20.9-4.9,31.6-1.5c7.1,2.3,10.7,7.6,10.9,14.8c0.3,9.5,0.2,19,0.2,28.6C230,79.8,230,86.5,233.2,93.2z"/>
	<path class="st0" d="M372.9,87.9c2.7,6.1,2.4,6.3-6.6,5.6c-1.4-0.7-2.5-1.4-3.1-3.3c-1.4-4.7-1.6-4.6-5.7-1.2
		c-8.5,6.6-18.1,7.4-28,5.1c-7.7-1.8-12.6-8.4-13.2-16.3c-0.5-7.7,4-14.9,11.6-18.2c7.3-3.2,15.4-2.9,23-4.5
		c1.1-0.2,2.3-0.1,3.2-0.6c2.5-1,6.6,0.2,6.9-3.9c0.2-4.2-0.5-8.4-4.6-11c-9.1-5.7-21.6-2.3-26.5,7.1c-2.7,5.3-6.8,1.3-10,1.1
		c-2.9-0.2-0.9-3.3-0.3-4.9c2.1-6,6.2-10.3,12.2-12.4c9.4-3.3,19-3.6,28.5-0.7c7.3,2.2,11.4,7.3,11.6,14.9c0.2,10.9,0,21.9,0,32.9
		C373,80.9,371.2,84.6,372.9,87.9z"/>
	<path class="st0" d="M239.7,5.3c10.5-3.4,16.2,1.1,21,9.7c5.7,10.4,12.7,20.1,19.3,30.4c7.3-11.2,15-22,21.7-33.4
		c3.4-5.9,7.5-8.3,14-7.3c1.2,0.2,2.5,0,3.9,0c0.7,2.2-1.1,3.3-2.1,4.7c-10,14.4-20,28.9-30.1,43.2c-1.7,2.4-2.4,4.7-2.4,7.6
		c0.2,9.7-0.1,19.4,0.1,29.1c0.1,3.5-1,4.2-4.3,4.2c-7.9-0.1-7.9,0.1-7.8-7.8c0.1-8.2,0.1-16.5,0.3-24.7c0.1-3.5-0.8-6.3-2.7-9.2
		c-9.8-14.4-19.4-28.9-29-43.3C240.9,7.6,240.3,6.4,239.7,5.3z"/>
	<path class="st0" d="M399.4,37.2c8.8-9.4,18.6-11,29.3-7.6c7.4,2.3,11.6,7.6,12.2,15.3c1.3,15.4,0.7,30.7,0.2,46.1
		c-0.2,5.5-4.7,2-7.2,2.8c-2.7,0.8-3.9-0.5-3.9-3.5c0.2-8.8,0.1-17.6,0.1-26.4c0-4.2,0.1-8.4-0.1-12.6c-0.4-8.5-4-12.7-11.4-13.6
		c-7.5-1-15.2,3.7-17.2,10.6c-0.8,2.8-1.2,5.7-1.2,8.7c0,10.6-0.5,21.3-0.1,31.8c0.2,5.1-2.2,5-5.8,5.1c-3.7,0.1-5.5-0.3-5.4-4.9
		c0.4-18.3,0.3-36.6,0.3-54.9c0-3.4,0.5-5.1,4.4-4.6c2.9,0.4,6.6-0.9,5.7,4.3C399.2,34.5,399.3,35.2,399.4,37.2z"/>
	<path class="st1" d="M51.1,155.9c8.4,2.7,16.9,5.5,25.3,8.3c1.6,0.5,3.8,0.4,3.9,3.1c0.2,3-2.1,3.1-3.9,3.7
		c-8.2,2.7-16.4,5.4-24.4,9.1c8.1,0,16.2,0,24.4,0c1.6,0,4-1,3.9,2.2c-0.1,2.9-2.4,2.2-4.1,2.2c-9.3,0.1-18.7,0.1-28,0
		c-1.6,0-4.1,0.9-3.9-2.2c0.1-2.3-1.1-5.1,2.6-6.2c8.6-2.6,17-5.5,27-8.7c-9.5-3.2-17.7-6.2-26.1-8.7c-2.9-0.9-3.6-2.2-3.6-5.1
		c0.1-2.5,0.9-3.1,3.2-3.1c9.9,0.1,19.8,0,29.6,0c1.6,0,3.4-0.3,3.3,2.3c-0.1,2.7-2.1,2.1-3.6,2.1c-8.4,0-16.8,0-25.2,0
		C51.3,155.3,51.2,155.6,51.1,155.9z"/>
	<path class="st2" d="M63.9,205.3c-3.7,0-7.3,0.3-10.9-0.1c-3.9-0.4-5,0.9-4.9,4.8c0,2.2,2.3,6.6-2,6.5c-4.1-0.1-1.7-4.4-1.8-6.6
		c-0.4-5.8-0.2-11.7-0.1-17.5c0-1.4-0.9-3.6,1.8-3.7c2.5-0.1,2.2,1.8,2.3,3.4c0.5,8.1,0.5,8.1,8.9,8.1c6.4,0,12.8,0,19.2,0
		c1.7,0,3.9-0.5,3.9,2.4c0,2.8-1.8,2.6-3.7,2.6C72.3,205.3,68.1,205.3,63.9,205.3z"/>
	<path class="st3" d="M570.6,471.6c-0.9-2.7,0.9-4.7,2.5-2.7c2.2,2.8,6,3.7,7.4,7.2C577.1,474.9,573.5,473.9,570.6,471.6z"/>
	<path class="st4" d="M602,675.7c-8.3,0.1-3.7-5.3-3.7-8.8C600.5,669.4,601,672.7,602,675.7z"/>
	<path class="st5" d="M357.5,89c1-3.9,4.3-3,7.6-3.8c-3,3.7-0.9,5.9,1.2,8.2c-5,0.5-2.8-4.3-4.7-6.2C359.8,86.9,359.1,89,357.5,89z"
		/>
	<path class="st5" d="M372.9,87.9c-2.6-3.2-1.1-6.9-1-10.4C373,80.9,372.7,84.5,372.9,87.9z"/>
	<path class="st6" d="M221.2,782.1c-0.6,0.4-1,0.8-1.4,0.8c-0.8,0.1-1.3-0.4-1.2-1.2c0.1-0.4,0.7-0.9,1.1-0.8
		C220.1,780.9,220.4,781.5,221.2,782.1z"/>
	<path class="st7" d="M235.9,799.8c0.4-0.5,0.6-1.1,0.9-1.2c0.8-0.3,1.4,0.2,1.4,1c0,0.3-0.6,0.9-1,1
		C236.9,800.6,236.5,800.1,235.9,799.8z"/>
	<path class="st8" d="M394.8,354c-2,1.6-3.1,0-4.4-1.2C392,352.7,393.6,352.8,394.8,354z"/>
	<path class="st9" d="M273.9,683.5c0.8-0.5,1.8-0.7,2.4-1.3c16.1-16.1,32.2-32.3,48.3-48.5c2-2,3.3-1.9,5.3,0.1
		c15.8,16,31.7,31.9,47.7,47.7c1.8,1.8,2.5,2.8,0.2,5.1c-16,15.7-31.8,31.6-47.6,47.5c-2.1,2.1-3.4,2.6-5.8,0.2
		c-15.9-16.1-32-32.1-48-48.1C275.7,685.7,275.1,685,273.9,683.5z"/>
	<path class="st9" d="M151.4,685.1c0.7-0.9,1.3-1.8,2.1-2.5c16-16,32.1-31.9,48-48.1c2.3-2.3,3.5-1.6,5.3,0.2
		c15.9,15.9,31.8,31.9,47.8,47.7c2.2,2.2,1.5,3.5-0.3,5.3c-15.9,15.8-31.8,31.7-47.6,47.6c-1.8,1.8-3,2.5-5.2,0.2
		c-15.9-16.2-32-32.2-48.1-48.2C152.8,686.6,152.2,685.9,151.4,685.1z"/>
	<path class="st9" d="M193.4,625.5c0.1-0.1-1.1,0.3-1.8,1c-15.8,15.7-31.5,31.4-47.1,47.3c-2.2,2.2-3.4,2.4-5.6,0.2
		c-15.8-16-31.7-31.9-47.7-47.7c-2.2-2.1-1.8-3.5,0.1-5.3c15.9-15.8,31.7-31.6,47.5-47.4c1.9-1.9,3-2.5,5.2-0.3
		c15.9,16.1,32,32.1,48,48.2C192.6,622.1,193.7,622.7,193.4,625.5z"/>
	<path class="st9" d="M317.8,747.6c-0.7,0.8-1.3,1.7-2.1,2.4c-16.1,16.1-32.3,32.1-48.3,48.4c-2.1,2.1-2.8,1.2-4.2-0.2
		c-16-16.1-32.1-32.1-48.2-48.1c-2.2-2.1-1.8-3.4,0.2-5.4c15.9-15.8,31.9-31.7,47.6-47.7c2-2,3.2-1.6,4.9,0.1
		c16,16.1,32.1,32.1,48.2,48.2C316.5,745.9,317,746.7,317.8,747.6z"/>
	<path class="st9" d="M202.8,508.9c0.7,0.6,1.8,1.3,2.7,2.2c15.8,15.8,31.5,31.6,47.4,47.3c2.3,2.3,2,3.5-0.2,5.6
		c-15.7,15.5-31.2,31.2-46.8,46.9c-2.3,2.4-3.7,2.9-6.4,0.1c-15.5-15.8-31.2-31.4-46.9-47c-2-2-2.7-3.3-0.3-5.7
		c16.1-15.9,32-31.9,48-47.9C200.9,509.8,201.3,508.9,202.8,508.9z"/>
	<path class="st9" d="M102.7,48.5c0-9.9,0.1-19.8-0.1-29.6c0-2.8,0.6-3.9,3.6-3.8c6.8,0.2,13.5-0.1,20.3,0.2
		c13.1,0.5,21.1,7.1,23.9,19.9c2.2,10.3,2,20.7-1.4,30.8c-3.3,9.7-9.9,15.3-20.1,15.9c-7.7,0.5-15.4,0.1-23,0.4
		c-3.4,0.1-3.3-1.8-3.3-4.2c0.1-9.9,0-19.8,0-29.6C102.6,48.5,102.6,48.5,102.7,48.5z"/>
	<path class="st10" d="M218.5,61.5c0.8,16.9-7.5,25.7-22,24.2c-6.1-0.6-10.1-4.2-10.4-9.3c-0.3-5.1,2.6-8.7,8.8-10.1
		C202.6,64.7,210.6,64.1,218.5,61.5z"/>
	<path class="st10" d="M339.6,86.2c-0.7-0.1-2.9-0.1-4.9-0.9c-4-1.4-6.3-4.4-6.4-8.6c-0.1-4.3,1.9-7.7,6-8.8
		c8.1-2.1,16.4-3.6,24.6-5.3c2.5-0.5,1.9,1.5,2,2.8C361.7,78.1,354,86.2,339.6,86.2z"/>
</g>
</svg>
